<svg id="Calque_1" data-name="Calque 1" xmlns="http://www.w3.org/2000/svg" xmlns:xlink="http://www.w3.org/1999/xlink" viewBox="0 0 659.48 190.08"><defs><style>.cls-1{fill:url(#Dégradé_sans_nom);}.cls-2{fill:url(#Dégradé_sans_nom_2);}.cls-3{fill:url(#Dégradé_sans_nom_3);}.cls-4{fill:url(#Dégradé_sans_nom_4);}.cls-5{fill:url(#Dégradé_sans_nom_5);}.cls-6{fill:url(#Dégradé_sans_nom_6);}.cls-7{fill:url(#Dégradé_sans_nom_7);}.cls-8{fill:url(#Dégradé_sans_nom_8);}.cls-9{fill:url(#Dégradé_sans_nom_9);}.cls-10{fill:url(#Dégradé_sans_nom_10);}.cls-11{fill:url(#Dégradé_sans_nom_11);}.cls-12{fill:url(#Dégradé_sans_nom_12);}.cls-13{fill:url(#Dégradé_sans_nom_13);}.cls-14{fill:url(#Dégradé_sans_nom_14);}.cls-15{fill:url(#Dégradé_sans_nom_15);}.cls-16{fill:url(#Dégradé_sans_nom_16);}.cls-17{fill:url(#Dégradé_sans_nom_17);}.cls-18{fill:url(#Dégradé_sans_nom_18);}.cls-19{fill:url(#Dégradé_sans_nom_19);}.cls-20{fill:url(#Dégradé_sans_nom_20);}.cls-21{fill:url(#Dégradé_sans_nom_21);}.cls-22{fill:url(#Dégradé_sans_nom_22);}.cls-23{fill:url(#Dégradé_sans_nom_23);}.cls-24{fill:url(#Dégradé_sans_nom_24);}.cls-25{fill:url(#Dégradé_sans_nom_25);}.cls-26{fill:url(#Dégradé_sans_nom_26);}.cls-27{fill:url(#Dégradé_sans_nom_27);}.cls-28{fill:url(#Dégradé_sans_nom_28);}.cls-29{fill:url(#Dégradé_sans_nom_29);}</style><linearGradient id="Dégradé_sans_nom" x1="701.09" y1="-18.69" x2="922.94" y2="126.44" gradientTransform="matrix(1, 0, 0, -1, -267.85, 386.69)" gradientUnits="userSpaceOnUse"><stop offset="0" stop-color="#46276e"/><stop offset="1" stop-color="#e30b17"/></linearGradient><linearGradient id="Dégradé_sans_nom_2" x1="708.32" y1="-37.54" x2="921.11" y2="113.26" xlink:href="#Dégradé_sans_nom"/><linearGradient id="Dégradé_sans_nom_3" x1="705.44" y1="-35.71" x2="922.76" y2="111.7" xlink:href="#Dégradé_sans_nom"/><linearGradient id="Dégradé_sans_nom_4" x1="1255.76" y1="23" x2="1272.12" y2="23" gradientTransform="matrix(1, 0, 0, -1, -267.85, 386.69)" gradientUnits="userSpaceOnUse"><stop offset="0" stop-color="#e30717"/><stop offset="1" stop-color="#e30717"/></linearGradient><linearGradient id="Dégradé_sans_nom_5" x1="1051.3" y1="22.99" x2="1067.52" y2="22.99" xlink:href="#Dégradé_sans_nom_4"/><linearGradient id="Dégradé_sans_nom_6" x1="1304.15" y1="28.28" x2="1319.19" y2="28.28" xlink:href="#Dégradé_sans_nom_4"/><linearGradient id="Dégradé_sans_nom_7" x1="1090.37" y1="28.28" x2="1105.41" y2="28.28" xlink:href="#Dégradé_sans_nom_4"/><linearGradient id="Dégradé_sans_nom_8" x1="949.05" y1="27.73" x2="967.11" y2="27.73" xlink:href="#Dégradé_sans_nom_4"/><linearGradient id="Dégradé_sans_nom_9" x1="1107.89" y1="25.61" x2="1123.41" y2="25.61" xlink:href="#Dégradé_sans_nom_4"/><linearGradient id="Dégradé_sans_nom_10" x1="1274.5" y1="25.56" x2="1290.08" y2="25.56" xlink:href="#Dégradé_sans_nom_4"/><linearGradient id="Dégradé_sans_nom_11" x1="1321.69" y1="25.56" x2="1337.32" y2="25.56" xlink:href="#Dégradé_sans_nom_4"/><linearGradient id="Dégradé_sans_nom_12" x1="1202.53" y1="25.62" x2="1218.07" y2="25.62" xlink:href="#Dégradé_sans_nom_4"/><linearGradient id="Dégradé_sans_nom_13" x1="979.84" y1="25.55" x2="995.34" y2="25.55" xlink:href="#Dégradé_sans_nom_4"/><linearGradient id="Dégradé_sans_nom_14" x1="996.59" y1="25.57" x2="1010.59" y2="25.57" xlink:href="#Dégradé_sans_nom_4"/><linearGradient id="Dégradé_sans_nom_15" x1="1238.22" y1="25.56" x2="1254.38" y2="25.56" xlink:href="#Dégradé_sans_nom_4"/><linearGradient id="Dégradé_sans_nom_16" x1="1143.67" y1="25.51" x2="1158.67" y2="25.51" xlink:href="#Dégradé_sans_nom_4"/><linearGradient id="Dégradé_sans_nom_17" x1="1033.78" y1="25.57" x2="1048.88" y2="25.57" xlink:href="#Dégradé_sans_nom_4"/><linearGradient id="Dégradé_sans_nom_18" x1="1173.87" y1="25.43" x2="1188.68" y2="25.43" xlink:href="#Dégradé_sans_nom_4"/><linearGradient id="Dégradé_sans_nom_19" x1="1131.7" y1="28.42" x2="1142.91" y2="28.42" xlink:href="#Dégradé_sans_nom_4"/><linearGradient id="Dégradé_sans_nom_20" x1="1076.97" y1="27.12" x2="1088.07" y2="27.12" xlink:href="#Dégradé_sans_nom_4"/><linearGradient id="Dégradé_sans_nom_21" x1="1160.49" y1="26.98" x2="1171.69" y2="26.98" xlink:href="#Dégradé_sans_nom_4"/><linearGradient id="Dégradé_sans_nom_22" x1="1290.75" y1="27.12" x2="1301.89" y2="27.12" xlink:href="#Dégradé_sans_nom_4"/><linearGradient id="Dégradé_sans_nom_23" x1="1012.24" y1="27.08" x2="1023.35" y2="27.08" xlink:href="#Dégradé_sans_nom_4"/><linearGradient id="Dégradé_sans_nom_24" x1="1226.41" y1="27.11" x2="1237.47" y2="27.11" xlink:href="#Dégradé_sans_nom_4"/><linearGradient id="Dégradé_sans_nom_25" x1="969.54" y1="25.66" x2="978.91" y2="25.66" xlink:href="#Dégradé_sans_nom_4"/><linearGradient id="Dégradé_sans_nom_26" x1="1339.68" y1="25.65" x2="1348.93" y2="25.65" xlink:href="#Dégradé_sans_nom_4"/><linearGradient id="Dégradé_sans_nom_27" x1="1192.33" y1="25.7" x2="1201.58" y2="25.7" xlink:href="#Dégradé_sans_nom_4"/><linearGradient id="Dégradé_sans_nom_28" x1="1025.64" y1="25.54" x2="1030.1" y2="25.54" xlink:href="#Dégradé_sans_nom_4"/><linearGradient id="Dégradé_sans_nom_29" x1="1025.17" y1="37.12" x2="1030.65" y2="37.12" xlink:href="#Dégradé_sans_nom_4"/></defs><path class="cls-1" d="M421.72,380.46a66.37,66.37,0,0,1,1.62-9.29c5.36-18.33,17-30.36,35.6-35.41a39.66,39.66,0,0,1,4.94-.89,1.69,1.69,0,0,0,1.73-1.56,29.72,29.72,0,0,1,58.65,2.14,41,41,0,0,1,.17,5.86c0,1.49-.18,1.59-1.72,1.59h-46.3c-1-.08-1.25.32-1,1.29a19.69,19.69,0,0,0,7,10.6c8.54,6.63,20,5.52,27.41-2.67.83-.92,1.34-.91,2.22-.2,1.71,1.38,3.5,2.66,5.26,4,1.28,1,1.3,1,.29,2.21a29.86,29.86,0,0,1-42.06,3.65c-.67-.57-1.32-1.17-1.94-1.79a28.71,28.71,0,0,1-8-15.12c-.32-1.56-.3-1.56-1.85-1.29a41.78,41.78,0,0,0-22.86,11.8,42.45,42.45,0,0,0,25.66,72.31c15.2,1.48,27.71-3.91,37.69-15.36a22.29,22.29,0,0,0,1.73-2.15c.5-.73,1-.83,1.67-.25l.1.06c2.26,1.38,2.31,1.41.78,3.55-7.63,10.7-17.93,17.38-30.9,19.45-16.5,2.65-30.67-2.38-42.24-14.33a48,48,0,0,1-13.22-28.17c-.12-.95-.26-1.89-.4-2.84Zm72.94-46.08h18c1.46,0,1.54-.12,1.09-1.51a19.91,19.91,0,0,0-22.68-13.38c-7.68,1.57-12.77,6.22-15.37,13.62-.37,1.06-.08,1.29,1,1.28C482.66,334.36,488.66,334.38,494.66,334.38Z" transform="translate(-421.72 -243.6)"/><path class="cls-2" d="M618,243.6c2,.31,4.13.29,6.18.63a46.84,46.84,0,0,1,24,11.46A48.46,48.46,0,0,1,664.41,286c2.08,14.94-1.66,28.39-11.4,40a46.66,46.66,0,0,1-29.12,16.42,47.32,47.32,0,0,1-9.44.53c-1.13-.05-1.52.31-1.51,1.48v22.41c0,1.76,0,1.77-1.81,1.77h-6.78c-1.67,0-1.73-.07-1.73-1.78V344.69c0-1.79,0-1.79-1.78-1.79h-5.39c-.91,0-1.32-.25-1.3-1.22v-6.11c0-.87.31-1.22,1.19-1.2h5.52c1.84,0,1.75,0,1.75-1.7V321.16a31.68,31.68,0,0,1,5.54-18.27c5.77-8.23,13.64-12.94,23.71-13.83a31.61,31.61,0,0,1,19.77,4.88c1,.59,1,1.05.38,1.93-1.32,1.76-2.57,3.57-3.78,5.4-.6.9-1.09,1.06-2.1.47A22,22,0,0,0,613,320.39c-.11,4.23,0,8.47,0,12.7,0,1,.3,1.3,1.29,1.31,12.24.16,22.86-3.89,31.55-12.5a40.48,40.48,0,0,0,12.17-25c1.47-13.78-2.71-25.67-12.58-35.39a40.69,40.69,0,0,0-25.59-11.84c-14.64-1.31-26.79,3.81-36.67,14.54-.89,1-1.68,2-2.49,3.07-.46.6-.82.78-1.56.26-2.81-1.93-2.4-1.68-.59-4.15A46.52,46.52,0,0,1,611.47,244c1.38-.18,2.77-.27,4.15-.4Z" transform="translate(-421.72 -243.6)"/><path class="cls-3" d="M530.59,362.11V338.87a29.72,29.72,0,1,1,33.56,29.67,29.22,29.22,0,0,1-22.09-6c-.27-.2-.51-.64-.89-.46s-.22.65-.22,1v23.73c0,1.86,0,1.86-1.85,1.86h-6.71c-1.8,0-1.81,0-1.81-1.76Zm49.68-23a20,20,0,1,0-20,20,20,20,0,0,0,20-20Z" transform="translate(-421.72 -243.6)"/><path d="M707.23,315.8v16c0,1.34-.14,1.38-1.84,1.43-1.07,0-1.6-.22-1.59-1.45.05-6.87,0-13.74,0-20.61,0-.58-.33-1.44.56-1.61a2.43,2.43,0,0,1,2.72.66c2.59,3.3,5.23,6.56,7.86,9.83l5.37,6.69a1.7,1.7,0,0,0,.24-1.3V311c0-1.42.07-1.48,1.63-1.48s1.63.06,1.64,1.46v20.6c0,.57.36,1.43-.56,1.61s-1.83.33-2.53-.57c-1.43-1.82-2.89-3.62-4.34-5.42l-8.54-10.66A9.23,9.23,0,0,0,707.23,315.8Z" transform="translate(-421.72 -243.6)"/><path d="M784.15,326.69v-15.3c0-1.74,1.12-2.46,2.78-1.81.63.25.48.76.49,1.21v20.73c0,.57.36,1.43-.52,1.63a2.28,2.28,0,0,1-2.62-.61c-2.07-2.64-4.19-5.24-6.28-7.86-2.3-2.86-4.59-5.73-6.93-8.67a1.58,1.58,0,0,0-.26,1.28v14.26c0,.56.24,1.34-.5,1.57a3.9,3.9,0,0,1-2.59-.05c-.38-.15-.31-.61-.31-1V310.62c0-.48,0-1,.63-1.1.94-.07,1.9-.28,2.63.66,1.92,2.45,3.89,4.87,5.84,7.3l6.88,8.61A1.08,1.08,0,0,0,784.15,326.69Z" transform="translate(-421.72 -243.6)"/><path d="M877.81,316.1v16a1,1,0,0,1-1.08,1.1H876c-1.59,0-1.63,0-1.63-1.59V311.24c0-.6-.4-1.52.58-1.7s1.89-.33,2.63.62c1.89,2.42,3.84,4.81,5.76,7.21l7.61,9.48a1.48,1.48,0,0,0,.17-1.07V310.92c0-1.42.07-1.47,1.63-1.47s1.64.06,1.64,1.47v20.6c0,.57.34,1.43-.58,1.6s-1.82.35-2.53-.56c-2.18-2.75-4.39-5.48-6.59-8.23l-6-7.48A1.77,1.77,0,0,0,877.81,316.1Z" transform="translate(-421.72 -243.6)"/><path class="cls-4" d="M999.83,355.2c-.07-1.44.72-1.44,1.57-1.42,3.1.07,2.85-.47,2.82,2.8a99,99,0,0,1-.15,10.76c-.42,3.76-2.2,5.69-5.93,6.31a13.33,13.33,0,0,1-8.4-1.18c-.85-.43-1.07-.84-.53-1.74,1.16-1.92,1.11-2,3.19-1.15a8.89,8.89,0,0,0,4.48.49,3,3,0,0,0,2.71-2.61c0-.27.15-.61-.1-.79s-.5.11-.74.23a7.44,7.44,0,0,1-7.94-.55,7.08,7.08,0,0,1,3.62-12.77A6.69,6.69,0,0,1,999.83,355.2Zm-.16,5.44c0-2.11-1.39-3.39-3.64-3.37a3.36,3.36,0,0,0-3.52,3.17v.26a3.32,3.32,0,0,0,3.3,3.32l.33,0a3.26,3.26,0,0,0,3.52-3c0-.11,0-.22,0-.33Z" transform="translate(-421.72 -243.6)"/><path class="cls-5" d="M795.15,366.39A7.68,7.68,0,0,1,784.91,365a7.42,7.42,0,0,1,.29-9.09,7.72,7.72,0,0,1,10.06-.93c.45-.25,0-1.13.78-1.15a12.38,12.38,0,0,1,3.33.09c.36.09.32.52.32.84,0,4.19.09,8.38-.06,12.57a6.3,6.3,0,0,1-5.46,6.23,13.88,13.88,0,0,1-8.77-1c-.89-.42-1.28-.93-.61-1.84a5.29,5.29,0,0,0,.29-.52c.81-1.53.81-1.54,2.33-.83a9.07,9.07,0,0,0,4.79.74C794.15,369.9,795.23,368.54,795.15,366.39Zm-7-5.77a3.59,3.59,0,0,0,7.16.09,3.32,3.32,0,0,0-3.19-3.44h-.31c-2.33,0-3.72,1.24-3.74,3.35Z" transform="translate(-421.72 -243.6)"/><path d="M839.6,321.31V310.89c0-1.05.36-1.43,1.39-1.4,3.19.1,6.39-.07,9.59.18,5.56.44,9,5.1,7.63,10.4a6.87,6.87,0,0,1-3.71,4.61c-.81.4-.81.76-.31,1.43,1.48,2,2.91,4,4.35,6,.18.25.5.5.34.84s-.55.23-.85.28a3.41,3.41,0,0,1-3.86-1.84c-1-1.65-2.21-3.13-3.32-4.7-.34-.47-.69-.9-1.35-.8a34.34,34.34,0,0,1-5.27.14c-.87,0-1.23.32-1.21,1.2V332c0,.86-.36,1.19-1.22,1.22-2.14.08-2.2.05-2.2-2.12Zm3.42-3.53v4.06c0,.75.29,1.1,1.06,1.09,2,0,4.07.05,6.1-.07a5.08,5.08,0,0,0,0-10.15c-2-.12-4.07,0-6.1-.07-.76,0-1.08.31-1.07,1.07C843,315.07,843,316.42,843,317.78Z" transform="translate(-421.72 -243.6)"/><path d="M1049.4,333.33c-8.33,0-13.15-3.67-14.38-9.3a11.92,11.92,0,0,1,8.93-14.31,11.71,11.71,0,0,1,2.7-.31c4.4-.07,8.15,1.23,10.77,4.87a11.5,11.5,0,0,1,.93,12.68C1056.07,331.4,1052.15,333.28,1049.4,333.33Zm6.88-11.85a8.65,8.65,0,0,0-8.31-9h-.49c-5.42,0-9.34,3.63-9.37,8.74a8.77,8.77,0,0,0,8.41,9.1h.59C1052.45,330.31,1056.26,326.63,1056.28,321.48Z" transform="translate(-421.72 -243.6)"/><path d="M1019.31,309.41c5.21.11,9.26,2.25,11.34,7.14a11.35,11.35,0,0,1-2.13,12.92c-3.61,3.91-8.27,4.68-13.22,3.31a10.94,10.94,0,0,1-8.34-9C1005.32,315.19,1012,309.11,1019.31,309.41Zm-.09,3c-5.27,0-9.16,3.73-9.18,8.83a9.15,9.15,0,1,0,9.46-8.82Z" transform="translate(-421.72 -243.6)"/><path d="M681.3,321.35v-10.3c0-1.11.33-1.58,1.5-1.56,4.6,0,9.19.05,13.79,0,1.28,0,1.38.63,1.39,1.64s-.21,1.55-1.38,1.54c-3.48-.05-7,0-10.43,0-1.08,0-1.52.3-1.45,1.43a38.73,38.73,0,0,1,0,4.31c-.07,1.14.39,1.42,1.46,1.4,3-.06,6,0,9-.05,1.21,0,1.36.51,1.38,1.51s-.26,1.53-1.41,1.5h-9c-1.11,0-1.48.37-1.42,1.45.07,1.56.06,3.12,0,4.67,0,1,.33,1.33,1.32,1.32h10.79c.53,0,1.26-.23,1.5.41a3.64,3.64,0,0,1,0,2.35c-.12.39-.59.35-.94.35H682.53c-1,0-1.19-.53-1.19-1.37C681.31,328.38,681.3,324.86,681.3,321.35Z" transform="translate(-421.72 -243.6)"/><path d="M817.09,321.26V311c0-1.09.39-1.48,1.48-1.47,4.59,0,9.19.05,13.78,0,1.26,0,1.41.58,1.42,1.62s-.28,1.58-1.47,1.56c-3.44-.06-6.88,0-10.31,0-1.18,0-1.54.39-1.48,1.52.07,1.48,0,3,0,4.43,0,.89.3,1.19,1.19,1.18h9.23c1.16,0,1.4.45,1.4,1.48s-.21,1.55-1.38,1.53h-9.11c-1,0-1.37.3-1.33,1.31.06,1.59.07,3.19,0,4.79,0,1.09.41,1.36,1.41,1.34h10.67c.53,0,1.27-.23,1.51.39a3.64,3.64,0,0,1,0,2.35c-.12.4-.58.37-.93.37h-15c-1,0-1.09-.57-1.09-1.33C817.15,328.36,817.09,324.81,817.09,321.26Z" transform="translate(-421.72 -243.6)"/><path d="M981.6,321.4V310.86c0-1.35.68-1.37,1.65-1.37s1.72,0,1.67,1.35c-.09,2.55,0,5.11,0,7.66,0,.93.27,1.27,1.23,1.25h10.91c1,0,1.26-.32,1.25-1.25V311c0-1.38.14-1.43,1.81-1.47,1,0,1.63.13,1.62,1.41q-.07,10.49,0,21c0,1.28-.6,1.43-1.62,1.41-1.67,0-1.8-.1-1.81-1.47v-7.67c0-1-.27-1.42-1.35-1.41-3.6.06-7.19.05-10.79,0-.93,0-1.27.29-1.25,1.24v7.19c0,2.09,0,2.09-1.61,2.09s-1.66,0-1.66-2C981.59,328,981.6,324.69,981.6,321.4Z" transform="translate(-421.72 -243.6)"/><path d="M794.7,321.39V310.84c0-1,.29-1.35,1.29-1.35H809.9c1.24,0,1.32.63,1.32,1.58s-.08,1.6-1.32,1.59c-3.51-.06-7,0-10.55,0-1,0-1.44.3-1.38,1.37a40.92,40.92,0,0,1,0,4.43c-.07,1.09.37,1.35,1.39,1.34,3-.06,6.07,0,9.11-.05,1.14,0,1.32.48,1.31,1.44s-.1,1.6-1.33,1.57h-9.11c-1,0-1.42.33-1.37,1.38.07,1.51.08,3,0,4.55-.06,1.14.3,1.54,1.48,1.52,3.59-.06,7.19,0,10.79,0,.53,0,1.23-.2,1.47.47a3.44,3.44,0,0,1,0,2.24c-.14.4-.57.4-.93.4h-15c-.85,0-1.07-.42-1.07-1.2C794.72,328.5,794.7,324.94,794.7,321.39Z" transform="translate(-421.72 -243.6)"/><path d="M750.45,325.76v3.35a2,2,0,0,1-.89,1.82c-4.95,3.61-14.11,3.57-18.37-2.59a11.62,11.62,0,0,1-1-12.27c2-4.22,5.62-6.31,10.24-6.62a12.3,12.3,0,0,1,9.11,2.54c.4.33,1.15.66.87,1.27a3.76,3.76,0,0,1-1.77,1.73c-.42.2-.69-.29-1-.53a9.82,9.82,0,0,0-13,.87,8.89,8.89,0,0,0,4.61,14.7,10.47,10.47,0,0,0,6.8-.66,1.65,1.65,0,0,0,1.13-1.74c-.06-1.83,0-3.67,0-5.51,0-.86.26-1.28,1.16-1.19a6.49,6.49,0,0,0,1.08,0c.71-.05,1,.28,1,1v3.84Z" transform="translate(-421.72 -243.6)"/><path d="M921,325.69v3.6a1.65,1.65,0,0,1-.64,1.46c-5.64,4.45-17.39,3.77-20.3-5.85A11.91,11.91,0,0,1,907.89,310a11.79,11.79,0,0,1,3.63-.54c3.27-.05,6.27.54,8.8,2.76.56.49,1,.9.3,1.66-1.23,1.38-1.35,1.46-2.33.68-5.09-4-12.9-2-14.93,3.87a9.09,9.09,0,0,0,10.42,11.81l.82-.15c2.85-.59,3.18-1,3.18-3.85V322c0-.74.23-1.14,1-1.08a4.18,4.18,0,0,0,1,0c1-.11,1.26.38,1.24,1.27C921,323.36,921,324.52,921,325.69Z" transform="translate(-421.72 -243.6)"/><path d="M943.67,309.43a12.71,12.71,0,0,1,7.08,1.71c.89.53.84,1,0,2.55-.5.91-1,.33-1.46.07A11.6,11.6,0,0,0,942,312.5a4.74,4.74,0,0,0-2.41,1,2.91,2.91,0,0,0,.23,4.93,10.44,10.44,0,0,0,2.91,1.09c1.72.49,3.48.9,5.18,1.47,3,1,4.53,2.94,4.56,5.62a6.11,6.11,0,0,1-4.57,6.05,14.14,14.14,0,0,1-12.29-1.55,2,2,0,0,1,0-3.35c.5-.35.71.13,1,.35a11.42,11.42,0,0,0,9.54,2,4.2,4.2,0,0,0,1.62-.74,2.87,2.87,0,0,0,.86-4,2.91,2.91,0,0,0-1-.93,13.86,13.86,0,0,0-4-1.43,30.55,30.55,0,0,1-4.69-1.42c-2.19-1-3.72-2.47-3.84-5a6,6,0,0,1,3.46-6.05A9.86,9.86,0,0,1,943.67,309.43Z" transform="translate(-421.72 -243.6)"/><path class="cls-6" d="M1040.77,354.94a8.15,8.15,0,0,1,4.88-1.39,5.53,5.53,0,0,1,5.62,5.28c.13,2.87,0,5.75,0,8.62a1.33,1.33,0,0,1,0,.47c-1,1.13-2.3.37-3.46.53-.73.09-.94-.41-.93-1.08v-7.06a2.55,2.55,0,0,0-1.66-2.66,3.26,3.26,0,0,0-3.46.72,3.85,3.85,0,0,0-1,2.88c0,2,0,3.91,0,5.87,0,.95-.27,1.38-1.28,1.37-3.82-.05-3.15.34-3.18-3.06V349.87c0-1.17.29-1.65,1.54-1.6,3.43.11,2.88-.39,2.93,2.93C1040.79,352.36,1040.77,353.51,1040.77,354.94Z" transform="translate(-421.72 -243.6)"/><path class="cls-7" d="M822.55,358.4v-8.86c0-.92.31-1.28,1.25-1.26,3.8.07,3.14-.45,3.21,3.13v.35c0,.92-.34,2.19.12,2.67s1.51-.48,2.35-.69c4.43-1.12,7.94,1.4,8.07,5.93.06,2.55,0,5.11,0,7.66,0,.82-.33,1.15-1.13,1.15-4.1,0-3.22.38-3.33-3.13a38.87,38.87,0,0,0-.14-5.5c-.27-1.6-1-2.26-2.38-2.35a3,3,0,0,0-3.33,2,6.14,6.14,0,0,0-.26,2.13v5.74c0,.83-.33,1.15-1.14,1.15-4.08,0-3.24.38-3.31-3.14C822.51,363,822.55,360.69,822.55,358.4Z" transform="translate(-421.72 -243.6)"/><path class="cls-8" d="M691.05,368.78c-3.59-.17-7-1.65-8.81-5.57a9.56,9.56,0,0,1,1.24-10.52c3.38-4.29,11.18-4.79,15.13-1.07.76.71.87,1.27,0,1.89-.13.09-.25.2-.37.3a6,6,0,0,1-1.55,1.28c-.55.19-1.06-.7-1.63-1a6.49,6.49,0,0,0-6.91.26,6.09,6.09,0,0,0-1.9,6.5,5.85,5.85,0,0,0,7.39,3.73,5.94,5.94,0,0,0,2.23-1.35c.51-.51.9-.57,1.39,0a11.43,11.43,0,0,0,1.13,1.07c1.21,1.13,1.21,1.27-.1,2.35A10.81,10.81,0,0,1,691.05,368.78Z" transform="translate(-421.72 -243.6)"/><path d="M967.71,309.42a11.84,11.84,0,0,1,8.18,2.74c.78.66.88,1.16.07,1.91-1.23,1.13-1.19,1.18-2.53.15a9.6,9.6,0,0,0-11.59.33,9,9,0,0,0-2.33,10.66,9.31,9.31,0,0,0,10,5,8,8,0,0,0,4.19-1.91c.71-.68,1.16-.65,1.86,0,1.38,1.31,1.41,1.41-.08,2.6-6,4.76-18,3-19.87-7.13C954,314.69,960.89,309.14,967.71,309.42Z" transform="translate(-421.72 -243.6)"/><path class="cls-9" d="M850,362.49h-4.19c-.31,0-.71-.1-.87.25s.16.67.38.93a4.64,4.64,0,0,0,5.83.63c1-.67,1.41-.4,2.06.32,1.53,1.7,1.5,2-.52,3.1a9.87,9.87,0,0,1-10.08-1,7.57,7.57,0,0,1-2.18-8.07,7.41,7.41,0,0,1,6.59-5.12c5.08-.32,8.64,2.88,8.54,7.61,0,1-.41,1.35-1.37,1.32-1.39,0-2.79,0-4.19,0Zm-2.18-2.89h2.39c.78,0,1.07-.32.62-1a3.49,3.49,0,0,0-4.83-1,3.4,3.4,0,0,0-1,1c-.39.61-.2,1,.55,1Z" transform="translate(-421.72 -243.6)"/><path class="cls-10" d="M1016.53,362.49h-4.19c-.3,0-.71-.13-.84.27s.16.6.36.85c1.11,1.41,3.7,1.79,5.64.89.48-.23.92-.95,1.45-.61a6.38,6.38,0,0,1,2,2.07c.31.5-.22.79-.54,1.05a7.92,7.92,0,0,1-5.26,1.68,8.38,8.38,0,0,1-6.33-2.39,7.23,7.23,0,0,1-1.6-7.88,7,7,0,0,1,6.32-4.8c4.93-.47,8.23,2.22,8.7,6.95.16,1.6-.12,1.93-1.7,1.93Zm-2-2.89H1017c.69,0,.85-.31.53-.9a3.11,3.11,0,0,0-2.83-1.68,3.22,3.22,0,0,0-3.12,1.6c-.34.59-.29,1,.52,1Z" transform="translate(-421.72 -243.6)"/><path class="cls-11" d="M1063.75,362.49h-4.2c-.3,0-.71-.1-.84.28s.15.59.34.84a4.68,4.68,0,0,0,5.92.68c.88-.59,1.33-.45,2,.26,1.6,1.76,1.54,2.2-.66,3.28-3.65,1.79-8.78.74-11-2.32a7.27,7.27,0,0,1-.67-7.72,7,7,0,0,1,6.25-4.2c4.38-.32,7.44,1.81,8.3,5.61.65,2.87.33,3.29-2.55,3.29Zm-2-2.9h2.51c.71,0,.85-.32.53-.9a3.51,3.51,0,0,0-4.84-1.16,3.57,3.57,0,0,0-1.16,1.16c-.3.52-.14.86.47.89.78,0,1.61,0,2.45,0Z" transform="translate(-421.72 -243.6)"/><path class="cls-12" d="M944.62,362.49h-4.19c-.31,0-.71-.13-.88.21s.14.68.36.95c1.17,1.49,3.91,1.8,5.84.71.41-.24.8-.88,1.35-.39a7,7,0,0,1,1.88,2.14c.14.28-.17.49-.37.69-2.41,2.39-8,2.48-11.06.18a7.54,7.54,0,0,1-1.94-9.59,8,8,0,0,1,9-3.62,7.24,7.24,0,0,1,5.61,7.16c0,1-.31,1.65-1.53,1.57S946,362.48,944.62,362.49Zm-2.07-2.88h2.39c.72,0,1-.27.6-.94a3.21,3.21,0,0,0-3-1.65,3.15,3.15,0,0,0-3,1.63c-.36.65-.16,1,.59,1Z" transform="translate(-421.72 -243.6)"/><path class="cls-13" d="M721.88,362.49h-4c-.37,0-.9-.21-1,.29s.24.73.51,1c1.21,1.33,3.73,1.59,5.57.62.43-.23.84-.88,1.35-.53a6.38,6.38,0,0,1,2,2.07c.26.44-.24.71-.51,1a7.23,7.23,0,0,1-5.15,1.75c-3.09,0-5.83-.88-7.58-3.7a7.58,7.58,0,0,1,2.67-10.37,7.76,7.76,0,0,1,3.21-1c4-.26,6.92,1.44,8.13,4.74a9.05,9.05,0,0,1,.41,3.06c0,.82-.39,1.13-1.18,1.12h-4.43Zm-2-2.89h2.5c.64,0,.78-.32.5-.84A3.12,3.12,0,0,0,720,357a3.19,3.19,0,0,0-3.09,1.63c-.37.65-.11,1,.61,1Z" transform="translate(-421.72 -243.6)"/><path class="cls-14" d="M742.72,363.44v3.83c0,.87-.37,1.24-1.23,1.21h-1.92c-.19,0-.51,0-.57-.07-.87-1.39-1.77-.29-2.64,0a7.35,7.35,0,0,1-5-.28,4.12,4.12,0,0,1-2.61-4.44,4,4,0,0,1,3.08-3.56,17.35,17.35,0,0,1,4.87-.5c.47,0,1.17.25,1.32-.45s-.34-1.13-.87-1.45a5.34,5.34,0,0,0-3.85-.31c-.35.06-.67.26-1,.32-.56.09-1,1-1.59.4a5.83,5.83,0,0,1-1.28-2.54c-.09-.37.3-.55.57-.69a11,11,0,0,1,9.71-.49c2.28,1,2.92,3.15,3,5.45C742.76,361,742.72,362.24,742.72,363.44Zm-7.4,2.1a2.89,2.89,0,0,0,2.61-1.4c.32-.59.57-1.43-.45-1.59a8.72,8.72,0,0,0-3.22.06,1.26,1.26,0,0,0-1.1,1.25,1.35,1.35,0,0,0,.87,1.42A3,3,0,0,0,735.32,365.54Z" transform="translate(-421.72 -243.6)"/><path class="cls-15" d="M986.53,361.13a7.61,7.61,0,0,1-7.64,7.58h-.36c-4.73-.07-8.16-3.29-8.12-7.64s3.45-7.52,8.32-7.5C983.26,353.58,986.55,356.75,986.53,361.13Zm-4.61-.1c0-2.31-1.41-3.79-3.54-3.75s-3.4,1.55-3.38,3.92a3.35,3.35,0,0,0,3,3.66,4,4,0,0,0,.49,0C980.65,364.87,981.93,363.43,981.92,361Z" transform="translate(-421.72 -243.6)"/><path class="cls-16" d="M886.71,366.89a7,7,0,0,1-5.9,1.65,5.45,5.45,0,0,1-4.74-4.71c-.45-3-.15-6.05-.21-9.08,0-.63.25-1,.92-1,4.35.06,3.58-.63,3.65,3.28v4.91a2.43,2.43,0,0,0,2.13,2.68h.05a2.89,2.89,0,0,0,3.41-2,7,7,0,0,0,.31-2.36V355c0-1,.35-1.37,1.33-1.29a12.18,12.18,0,0,0,1.91,0c.85,0,1.23.26,1.23,1.16v12.45c0,.76-.31,1.1-1.06,1.08h-1.8C887.09,368.5,886.34,368.4,886.71,366.89Z" transform="translate(-421.72 -243.6)"/><path class="cls-17" d="M770.15,355.13a7.62,7.62,0,0,1,4.69-1.58c3.5.05,5.79,2,6,5.49a54.69,54.69,0,0,1,0,8.49c-.16,1.84-1.93.67-2.94.91-.7.17-1.46.08-1.44-1v-6a8.81,8.81,0,0,0-.13-1.54c-.35-1.74-1-2.35-2.62-2.39a2.88,2.88,0,0,0-3.18,2.3,24.1,24.1,0,0,0-.18,4.65v1c0,3.34-.14,3.45-3.5,3.07-.62-.07-1-.29-.94-1V354.72c0-.67.32-.93,1-.91s1.37,0,2,0C769.76,353.69,770.24,354,770.15,355.13Z" transform="translate(-421.72 -243.6)"/><path class="cls-18" d="M920.81,361.15v6.11c0,.88-.32,1.26-1.19,1.22h-2c-.31,0-.79,0-.84-.31-.25-1.43-.91-.56-1.43-.28-4.45,2.4-9.27-.42-9.29-5.43V355c0-.94.32-1.27,1.26-1.25,3.69.09,3.13-.47,3.18,3.05v5a2.5,2.5,0,0,0,2.31,2.82,2.92,2.92,0,0,0,3.39-2.18,16.17,16.17,0,0,0,.18-4.05v-3.6c0-.76.3-1.07,1.07-1.06,4.1.07,3.28-.54,3.37,3.18C920.84,358.36,920.81,359.76,920.81,361.15Z" transform="translate(-421.72 -243.6)"/><path class="cls-19" d="M866,362.88v-4.19c0-.78-.21-1.25-1.08-1.17s-1.16-.34-1.12-1.13v-1.2c0-.8.28-1.22,1.12-1.15s1.19-.39,1.24-1.21c.3-4.67,5.29-5.5,8.35-4.26.37.16.6.41.45.84-.24.72-.48,1.44-.75,2.15s-.64.39-1.09.28c-1.55-.36-2.33.06-2.61,1.27-.13.6,0,.94.66.93a8,8,0,0,1,1.2,0c.57.06,1.36-.29,1.64.36a4.06,4.06,0,0,1,0,2.71c-.15.54-.72.39-1.14.4-2.49.05-2.32-.43-2.33,2.42v7.19c0,1-.3,1.37-1.3,1.36-3.82-.06-3.26.39-3.31-3.22C866,364.48,866,363.69,866,362.88Z" transform="translate(-421.72 -243.6)"/><path d="M1064.86,321.34c0-3.47.06-6.95,0-10.42,0-1.4.71-1.42,1.73-1.43s1.61.14,1.6,1.42c-.06,5.91,0,11.82,0,17.73,0,1.16.35,1.52,1.5,1.5,3.32-.06,6.63,0,10,0,1.43,0,1.44.1,1.51,1.63,0,1.15-.37,1.53-1.51,1.52-4.4-.05-8.8,0-13.2,0-1.12,0-1.55-.33-1.52-1.5C1064.9,328.29,1064.86,324.82,1064.86,321.34Z" transform="translate(-421.72 -243.6)"/><path class="cls-20" d="M811.31,361v-1.79c.09-1.06-.08-1.83-1.43-1.67-.48.05-.73-.26-.74-.74s0-1,0-1.55c0-.79.25-1.24,1.1-1.17s1.11-.34,1.1-1.14c0-2.49-.34-2.41,2.5-2.4h1c.74,0,1.13.31,1.11,1.07v.36c0,2.37,0,2.08,2.18,2.1,1.38,0,1.39.09,1.43,1.82,0,1-.08,1.75-1.45,1.69-2.24-.08-2.16-.33-2.16,2.21v3.48c0,1.44.87,2.11,2.21,1.67,1-.31,1.34-.06,1.67.84.78,2.18.63,2.48-1.69,2.79a7.05,7.05,0,0,1-2,.07c-3.17-.47-4.63-2-4.75-5.25V361Z" transform="translate(-421.72 -243.6)"/><path class="cls-21" d="M894.83,360.94v-1.67c.06-1.06,0-2-1.46-1.78-.49.07-.7-.3-.72-.76s0-1,0-1.55c0-.8.3-1.21,1.12-1.14s1.09-.41,1.08-1.17c-.06-2.52-.08-2.37,2.45-2.37h1c.88-.05,1.25.36,1.17,1.22v.36c0,1.95,0,1.93,2,2,.55,0,1.35-.29,1.54.5a3.84,3.84,0,0,1-.1,2.69c-.27.51-1,.27-1.45.28-1.94,0-1.94,0-1.94,2v3.7c0,1.5.87,2.18,2.27,1.7,1-.34,1.38,0,1.62.88a11.83,11.83,0,0,0,.42,1.13c.24.59,0,.94-.53,1.23a5.59,5.59,0,0,1-7.63-2.11,5.53,5.53,0,0,1-.73-2.57V361Z" transform="translate(-421.72 -243.6)"/><path class="cls-22" d="M1025.15,361.33v-1.91c.06-1.1.08-2.13-1.54-1.93-.43.05-.61-.32-.63-.72s0-1,0-1.44c-.06-.87.23-1.38,1.21-1.29.83.07,1-.44,1-1.14-.06-2.6,0-2.39,2.55-2.4,2,0,2.1,0,2,2,0,1.24.38,1.69,1.58,1.53a11.81,11.81,0,0,1,1.19,0,.75.75,0,0,1,.83.66v.75c0,2.06,0,2.06-2,2.06-1.61,0-1.61,0-1.61,1.57v4.19a1.54,1.54,0,0,0,2.23,1.63c1-.32,1.33-.06,1.66.82.81,2.17.64,2.48-1.69,2.83a8.93,8.93,0,0,1-2.73,0,4.51,4.51,0,0,1-3.9-4A21.5,21.5,0,0,1,1025.15,361.33Z" transform="translate(-421.72 -243.6)"/><path class="cls-23" d="M746.73,361.32v-2.76c0-.77-.28-1.12-1.05-1-1.42.17-1.29-.82-1.28-1.7s-.18-2,1.32-1.79c.81.09,1-.35,1-1.08.06-2.47.08-2.46,2.55-2.46,1.85,0,1.85,0,1.86,1.86,0,1.67,0,1.65,1.62,1.69.62,0,1.45-.31,1.78.33a4,4,0,0,1,.08,2.7c-.12.57-.7.42-1.11.44-2.37.08-2.37.08-2.37,2.49v3.24a1.61,1.61,0,0,0,2.24,1.66c1-.32,1.34-.12,1.66.81.79,2.23.64,2.48-1.78,2.85a7.52,7.52,0,0,1-3.2-.21,4.35,4.35,0,0,1-3.35-4.17c-.05-1,0-1.91,0-2.87Z" transform="translate(-421.72 -243.6)"/><path class="cls-24" d="M960.75,361.17v-2.63c0-.69-.22-1.09-1-1-1,.1-1.3-.35-1.22-1.26a8,8,0,0,0,0-1.2c0-.69.24-1.09,1-1,1,.09,1.23-.35,1.22-1.26,0-2.26-.42-2.31,2.37-2.29h1.07a.87.87,0,0,1,1,1v.23c0,2.22,0,2.27,2.23,2.24,1,0,1.49.34,1.37,1.39a4.79,4.79,0,0,0,0,1.07c0,.78-.33,1-1.08,1.06-2.52.1-2.52.12-2.52,2.66v2.88c.07,1.59,1,2.26,2.47,1.8.78-.24,1.13-.1,1.43.68.91,2.36.76,2.66-1.77,3-4.26.58-6.58-1.43-6.59-5.71Z" transform="translate(-421.72 -243.6)"/><path class="cls-25" d="M706.15,355.11a8,8,0,0,1,3.5-1.51c.94-.14,1.49.12,1.42,1.17v1.08c0,1.74,0,1.85-1.73,1.89a3,3,0,0,0-3,3,1.55,1.55,0,0,0,0,.22c-.06,2-.07,4.07,0,6.11,0,1.12-.41,1.45-1.47,1.43-3.58-.06-3.11.36-3.13-3.14v-9.93c0-1.61,0-1.63,1.59-1.63h1.31C705.49,353.69,706.21,353.83,706.15,355.11Z" transform="translate(-421.72 -243.6)"/><path class="cls-26" d="M1076.29,355.14a6.5,6.5,0,0,1,3.72-1.56c.67-.06,1.09.17,1.06.92v.84c0,2.06,0,2.06-2,2.42a3,3,0,0,0-2.53,2.53,33.14,33.14,0,0,0-.2,6.68c0,1.15-.35,1.55-1.5,1.53-3.43-.08-2.92.3-2.94-2.95v-10.3c0-1.16.4-1.6,1.54-1.47a5.74,5.74,0,0,0,1.31,0C1075.57,353.69,1076.29,353.84,1076.29,355.14Z" transform="translate(-421.72 -243.6)"/><path class="cls-27" d="M928.78,355.12a7.71,7.71,0,0,1,3.41-1.5c1.24-.19,1.51,0,1.54,1.26v.81c0,1.73.21,2-1.84,2-1.78,0-2.86,1.32-2.92,3.31s-.07,4.07,0,6.11c0,1-.38,1.33-1.35,1.32-3.73-.05-3,.32-3.08-3s0-6.79,0-10.18c0-1.25.41-1.67,1.59-1.52a6.49,6.49,0,0,0,1.08,0C928.05,353.69,928.86,353.75,928.78,355.12Z" transform="translate(-421.72 -243.6)"/><path d="M867.29,321.45c0,3.48-.06,6.95,0,10.43,0,1.43-.79,1.37-1.76,1.39s-1.75,0-1.74-1.42q.09-10.49,0-21c0-1.43.79-1.37,1.77-1.39s1.76,0,1.73,1.42C867.23,314.42,867.29,317.94,867.29,321.45Z" transform="translate(-421.72 -243.6)"/><path d="M760.29,321.48c0,3.48,0,6.95,0,10.42,0,1.35-.71,1.37-1.67,1.36s-1.8,0-1.79-1.39v-21c0-1.33.15-1.37,1.85-1.42,1.08,0,1.6.23,1.58,1.46C760.24,314.46,760.29,318,760.29,321.48Z" transform="translate(-421.72 -243.6)"/><path class="cls-28" d="M762.23,361.19v6c0,1-.37,1.33-1.33,1.32-3.67-.05-3.07.33-3.1-3s0-6.78,0-10.17c0-1.1.27-1.58,1.47-1.55,3.5.12,2.91-.44,3,3C762.25,358.23,762.23,359.69,762.23,361.19Z" transform="translate(-421.72 -243.6)"/><path class="cls-29" d="M760.08,352a2.45,2.45,0,0,1-2.74-2.14,1.83,1.83,0,0,1,0-.33,2.77,2.77,0,0,1,5.48-.08,2.56,2.56,0,0,1-2.54,2.56Z" transform="translate(-421.72 -243.6)"/></svg>