<svg id="Calque_1" data-name="Calque 1" xmlns="http://www.w3.org/2000/svg" xmlns:xlink="http://www.w3.org/1999/xlink" viewBox="0 0 1014 791.81"><defs><style>.cls-1{fill:url(#Dégradé_sans_nom_18);}.cls-2{fill:url(#Dégradé_sans_nom_18-2);}.cls-3{fill:url(#Dégradé_sans_nom_18-3);}</style><linearGradient id="Dégradé_sans_nom_18" x1="496.68" y1="830.84" x2="1376.68" y2="221.51" gradientUnits="userSpaceOnUse"><stop offset="0" stop-color="#46276e"/><stop offset="1" stop-color="#e30b17"/></linearGradient><linearGradient id="Dégradé_sans_nom_18-2" x1="534.73" y1="901.05" x2="1421.4" y2="265.05" xlink:href="#Dégradé_sans_nom_18"/><linearGradient id="Dégradé_sans_nom_18-3" x1="540.45" y1="900.07" x2="1417.78" y2="261.4" xlink:href="#Dégradé_sans_nom_18"/></defs><path class="cls-1" d="M454,714.78c1.83-13,3.06-26.08,6.76-38.74,22.32-76.38,70.9-126.48,148.35-147.52a157,157,0,0,1,20.62-3.69c4.18-.56,6.32-2,7.22-6.51a123.87,123.87,0,0,1,110-99.24c66.56-6.23,126.41,42,134.44,108.13,1,8.15.88,16.27.69,24.41-.15,6.22-.74,6.63-7.15,6.63l-188.48,0c-1.5,0-3,.1-4.5,0-4.22-.34-5.21,1.35-4.1,5.37,4.93,18,14.58,32.81,29.25,44.19,35.61,27.63,83.41,23,114.26-11.14,3.46-3.83,5.57-3.79,9.27-.82,7.13,5.75,14.59,11.08,21.9,16.59,5.35,4,5.45,4.28,1.22,9.2-21.18,24.62-47.65,39.71-80.1,43.52-40.16,4.7-74.74-7.58-103.41-35.75-17.68-17.37-28.53-38.73-33.44-63-1.32-6.5-1.26-6.47-7.71-5.35-36.94,6.38-68.86,22.8-95.27,49.16-28.61,28.54-46,63-50.71,103.34-5.73,48.56,6,92.6,36.4,131,30.93,39.07,71.49,62,121.27,66.81,63.37,6.18,115.53-16.28,157.13-64a102.25,102.25,0,0,0,7.19-8.94c2.09-3,4.21-3.46,6.95-1.07a3,3,0,0,0,.41.28c9.43,5.74,9.63,5.88,3.28,14.77C783.92,897,741,924.8,687,933.45c-68.81,11-127.86-9.94-176.09-59.72-31.55-32.54-49.52-72.14-55.22-117.18-.5-3.94-1.1-7.87-1.65-11.81Zm303.74-192v0h75c6.46,0,6.73-.4,4.74-6.5a82.6,82.6,0,0,0-91.24-56c-33.83,5.38-56,25.22-67.34,57.41-1.44,4.09-.39,5.12,3.85,5.09C707.74,522.68,732.74,522.76,757.74,522.76Z" transform="translate(-454 -144.5)"/><path class="cls-2" d="M1468,364.22c-1.37,8.52-1.72,17.17-3.5,25.64C1448.3,467,1404,520.32,1329.75,547.79c-22.54,8.33-46.26,11-70.3,10.36-8.14-.21-8.15,0-8.15,8.12q0,45.69,0,91.37c0,7.29,0,7.31-7.1,7.32q-13.76,0-27.5,0c-8.66,0-8.67,0-8.68-8.45q0-45.43,0-90.87c0-7.42,0-7.43-7.43-7.43s-15-.09-22.5.11c-3.79.1-5.44-1.13-5.35-5.12.19-8.48.16-17,0-25.46-.06-3.66,1.38-5,5-5,8,.15,16-.19,24,.13,4.74.18,6.43-1.32,6.35-6.2-.24-16.3-.23-32.62-.06-48.93.3-27.6,7-53.44,23-76.23,24-34.27,56.84-53.89,98.85-57.59,29.8-2.63,57.07,4.81,82.4,20.35,4,2.45,4.31,4.39,1.54,8.06-5.52,7.31-10.74,14.84-15.78,22.48-2.51,3.8-4.57,4.36-8.73,1.91A91.36,91.36,0,0,0,1278,401.15c-17.49,17.82-26.18,39.48-26.63,64.33-.31,17.31.05,34.62-.13,51.93,0,4.12,1.29,5.4,5.42,5.46,51,.65,95.26-16.25,131.49-52.1,29-28.66,46.37-63.62,50.71-104.37C1445,309,1427.54,259.47,1386.42,219c-29.45-29-65.3-45.68-106.68-49.35-61-5.43-111.67,15.88-152.84,60.62-3.71,4-7,8.46-10.37,12.78-1.93,2.47-3.42,3.21-6.53,1.07-11.69-8-10-7-2.44-17.28q51.14-69.63,137.12-80.66c5.75-.73,11.54-1.12,17.32-1.66h10c7.26.67,14.57,1,21.78,2.05,83.82,11.81,152.56,76.71,169.49,159.73,2.16,10.59,3.17,21.31,4.73,32Z" transform="translate(-454 -144.5)"/><path class="cls-3" d="M907.78,638.3q0-48.93,0-97.86c.05-59.62,46.79-112.72,106.08-120.55,67.27-8.87,127.57,33.94,139.62,100.48,13.26,73.18-38.31,136.22-105.8,144.74-34,4.29-64.75-4.16-92.06-24.9-1.13-.85-2.13-2.68-3.74-1.89s-.87,2.7-.87,4.11q-.06,49.43,0,98.86c0,7.72,0,7.73-7.71,7.73q-14.25,0-28.5,0c-7,0-7,0-7-6.87Q907.77,690.22,907.78,638.3Zm207.08-95.54c.1-45.4-36.87-83.27-81.44-83.43-47.29-.17-85,36.51-85.19,82.82-.17,45.72,37.38,83.46,83.09,83.52A83.28,83.28,0,0,0,1114.86,542.76Z" transform="translate(-454 -144.5)"/></svg>